solid
 facet normal  0.000000e+00  1.000000e+00 -0.000000e+00
   outer loop
     vertex  1.600000e+00  1.250000e+00  1.000000e-01
     vertex -1.600000e+00  1.250000e+00  1.000000e-01
     vertex -1.600000e+00  1.250000e+00  7.000000e-01
   endloop
 endfacet
 facet normal  0.000000e+00  1.000000e+00 -0.000000e+00
   outer loop
     vertex  1.600000e+00  1.250000e+00  1.000000e-01
     vertex -1.600000e+00  1.250000e+00  7.000000e-01
     vertex  1.600000e+00  1.250000e+00  7.000000e-01
   endloop
 endfacet
 facet normal  1.000000e+00 -0.000000e+00  0.000000e+00
   outer loop
     vertex  1.600000e+00 -1.250000e+00  7.000000e-01
     vertex  1.600000e+00  1.250000e+00  1.000000e-01
     vertex  1.600000e+00  1.250000e+00  7.000000e-01
   endloop
 endfacet
 facet normal  1.000000e+00  0.000000e+00 -0.000000e+00
   outer loop
     vertex  1.600000e+00 -1.250000e+00  1.000000e-01
     vertex  1.600000e+00  1.250000e+00  1.000000e-01
     vertex  1.600000e+00 -1.250000e+00  7.000000e-01
   endloop
 endfacet
 facet normal  0.000000e+00 -1.000000e+00  0.000000e+00
   outer loop
     vertex -1.600000e+00 -1.250000e+00  1.000000e-01
     vertex  1.600000e+00 -1.250000e+00  1.000000e-01
     vertex  1.600000e+00 -1.250000e+00  7.000000e-01
   endloop
 endfacet
 facet normal  0.000000e+00 -1.000000e+00  0.000000e+00
   outer loop
     vertex -1.600000e+00 -1.250000e+00  1.000000e-01
     vertex  1.600000e+00 -1.250000e+00  7.000000e-01
     vertex -1.600000e+00 -1.250000e+00  7.000000e-01
   endloop
 endfacet
 facet normal -1.000000e+00 -0.000000e+00  0.000000e+00
   outer loop
     vertex -1.600000e+00  1.250000e+00  7.000000e-01
     vertex -1.600000e+00 -1.250000e+00  1.000000e-01
     vertex -1.600000e+00 -1.250000e+00  7.000000e-01
   endloop
 endfacet
 facet normal -1.000000e+00  0.000000e+00  0.000000e+00
   outer loop
     vertex -1.600000e+00  1.250000e+00  1.000000e-01
     vertex -1.600000e+00 -1.250000e+00  1.000000e-01
     vertex -1.600000e+00  1.250000e+00  7.000000e-01
   endloop
 endfacet
 facet normal  0.000000e+00  0.000000e+00 -1.000000e+00
   outer loop
     vertex  1.600000e+00 -1.250000e+00  1.000000e-01
     vertex -1.600000e+00 -1.250000e+00  1.000000e-01
     vertex  1.600000e+00  1.250000e+00  1.000000e-01
   endloop
 endfacet
 facet normal  0.000000e+00  0.000000e+00 -1.000000e+00
   outer loop
     vertex -1.600000e+00 -1.250000e+00  1.000000e-01
     vertex -1.600000e+00  1.250000e+00  1.000000e-01
     vertex  1.600000e+00  1.250000e+00  1.000000e-01
   endloop
 endfacet
 facet normal -0.000000e+00  0.000000e+00  1.000000e+00
   outer loop
     vertex  1.600000e+00  1.250000e+00  7.000000e-01
     vertex -1.600000e+00 -1.250000e+00  7.000000e-01
     vertex  1.600000e+00 -1.250000e+00  7.000000e-01
   endloop
 endfacet
 facet normal  0.000000e+00  0.000000e+00  1.000000e+00
   outer loop
     vertex  1.600000e+00  1.250000e+00  7.000000e-01
     vertex -1.600000e+00  1.250000e+00  7.000000e-01
     vertex -1.600000e+00 -1.250000e+00  7.000000e-01
   endloop
 endfacet
 facet normal -1.000000e+00 -0.000000e+00 -0.000000e+00
   outer loop
     vertex -1.680000e+00 -3.200000e-01  1.000000e-01
     vertex -1.680000e+00 -3.200000e-01  0.000000e+00
     vertex -1.680000e+00 -1.280000e+00  1.000000e-01
   endloop
 endfacet
 facet normal -1.000000e+00  0.000000e+00  0.000000e+00
   outer loop
     vertex -1.680000e+00 -3.200000e-01  0.000000e+00
     vertex -1.680000e+00 -1.280000e+00  0.000000e+00
     vertex -1.680000e+00 -1.280000e+00  1.000000e-01
   endloop
 endfacet
 facet normal  1.000000e+00 -0.000000e+00  0.000000e+00
   outer loop
     vertex -5.200000e-01 -1.280000e+00  1.000000e-01
     vertex -5.200000e-01 -3.200000e-01  0.000000e+00
     vertex -5.200000e-01 -3.200000e-01  1.000000e-01
   endloop
 endfacet
 facet normal  1.000000e+00 -0.000000e+00  0.000000e+00
   outer loop
     vertex -5.200000e-01 -1.280000e+00  1.000000e-01
     vertex -5.200000e-01 -1.280000e+00  0.000000e+00
     vertex -5.200000e-01 -3.200000e-01  0.000000e+00
   endloop
 endfacet
 facet normal  0.000000e+00 -1.000000e+00  0.000000e+00
   outer loop
     vertex -1.680000e+00 -1.280000e+00  1.000000e-01
     vertex -1.680000e+00 -1.280000e+00  0.000000e+00
     vertex -5.200000e-01 -1.280000e+00  0.000000e+00
   endloop
 endfacet
 facet normal  0.000000e+00 -1.000000e+00  0.000000e+00
   outer loop
     vertex -1.680000e+00 -1.280000e+00  1.000000e-01
     vertex -5.200000e-01 -1.280000e+00  0.000000e+00
     vertex -5.200000e-01 -1.280000e+00  1.000000e-01
   endloop
 endfacet
 facet normal  0.000000e+00  1.000000e+00 -0.000000e+00
   outer loop
     vertex -5.200000e-01 -3.200000e-01  0.000000e+00
     vertex -1.680000e+00 -3.200000e-01  0.000000e+00
     vertex -1.680000e+00 -3.200000e-01  1.000000e-01
   endloop
 endfacet
 facet normal  0.000000e+00  1.000000e+00  0.000000e+00
   outer loop
     vertex -5.200000e-01 -3.200000e-01  1.000000e-01
     vertex -5.200000e-01 -3.200000e-01  0.000000e+00
     vertex -1.680000e+00 -3.200000e-01  1.000000e-01
   endloop
 endfacet
 facet normal  0.000000e+00  0.000000e+00 -1.000000e+00
   outer loop
     vertex -1.680000e+00 -1.280000e+00  0.000000e+00
     vertex -1.680000e+00 -3.200000e-01  0.000000e+00
     vertex -5.200000e-01 -3.200000e-01  0.000000e+00
   endloop
 endfacet
 facet normal  0.000000e+00  0.000000e+00 -1.000000e+00
   outer loop
     vertex -5.200000e-01 -1.280000e+00  0.000000e+00
     vertex -1.680000e+00 -1.280000e+00  0.000000e+00
     vertex -5.200000e-01 -3.200000e-01  0.000000e+00
   endloop
 endfacet
 facet normal  0.000000e+00  0.000000e+00  1.000000e+00
   outer loop
     vertex -5.200000e-01 -3.200000e-01  1.000000e-01
     vertex -1.680000e+00 -3.200000e-01  1.000000e-01
     vertex -1.680000e+00 -1.280000e+00  1.000000e-01
   endloop
 endfacet
 facet normal -0.000000e+00  0.000000e+00  1.000000e+00
   outer loop
     vertex -5.200000e-01 -3.200000e-01  1.000000e-01
     vertex -1.680000e+00 -1.280000e+00  1.000000e-01
     vertex -5.200000e-01 -1.280000e+00  1.000000e-01
   endloop
 endfacet
 facet normal -1.000000e+00 -0.000000e+00 -0.000000e+00
   outer loop
     vertex  5.200000e-01 -3.200000e-01  1.000000e-01
     vertex  5.200000e-01 -3.200000e-01  0.000000e+00
     vertex  5.200000e-01 -1.280000e+00  1.000000e-01
   endloop
 endfacet
 facet normal -1.000000e+00  0.000000e+00  0.000000e+00
   outer loop
     vertex  5.200000e-01 -3.200000e-01  0.000000e+00
     vertex  5.200000e-01 -1.280000e+00  0.000000e+00
     vertex  5.200000e-01 -1.280000e+00  1.000000e-01
   endloop
 endfacet
 facet normal  1.000000e+00 -0.000000e+00  0.000000e+00
   outer loop
     vertex  1.680000e+00 -1.280000e+00  1.000000e-01
     vertex  1.680000e+00 -3.200000e-01  0.000000e+00
     vertex  1.680000e+00 -3.200000e-01  1.000000e-01
   endloop
 endfacet
 facet normal  1.000000e+00 -0.000000e+00  0.000000e+00
   outer loop
     vertex  1.680000e+00 -1.280000e+00  1.000000e-01
     vertex  1.680000e+00 -1.280000e+00  0.000000e+00
     vertex  1.680000e+00 -3.200000e-01  0.000000e+00
   endloop
 endfacet
 facet normal  0.000000e+00 -1.000000e+00  0.000000e+00
   outer loop
     vertex  5.200000e-01 -1.280000e+00  0.000000e+00
     vertex  1.680000e+00 -1.280000e+00  0.000000e+00
     vertex  1.680000e+00 -1.280000e+00  1.000000e-01
   endloop
 endfacet
 facet normal  0.000000e+00 -1.000000e+00  0.000000e+00
   outer loop
     vertex  5.200000e-01 -1.280000e+00  1.000000e-01
     vertex  5.200000e-01 -1.280000e+00  0.000000e+00
     vertex  1.680000e+00 -1.280000e+00  1.000000e-01
   endloop
 endfacet
 facet normal  0.000000e+00  1.000000e+00  0.000000e+00
   outer loop
     vertex  1.680000e+00 -3.200000e-01  1.000000e-01
     vertex  1.680000e+00 -3.200000e-01  0.000000e+00
     vertex  5.200000e-01 -3.200000e-01  0.000000e+00
   endloop
 endfacet
 facet normal  0.000000e+00  1.000000e+00 -0.000000e+00
   outer loop
     vertex  1.680000e+00 -3.200000e-01  1.000000e-01
     vertex  5.200000e-01 -3.200000e-01  0.000000e+00
     vertex  5.200000e-01 -3.200000e-01  1.000000e-01
   endloop
 endfacet
 facet normal  0.000000e+00  0.000000e+00 -1.000000e+00
   outer loop
     vertex  5.200000e-01 -1.280000e+00  0.000000e+00
     vertex  5.200000e-01 -3.200000e-01  0.000000e+00
     vertex  1.680000e+00 -3.200000e-01  0.000000e+00
   endloop
 endfacet
 facet normal  0.000000e+00  0.000000e+00 -1.000000e+00
   outer loop
     vertex  1.680000e+00 -1.280000e+00  0.000000e+00
     vertex  5.200000e-01 -1.280000e+00  0.000000e+00
     vertex  1.680000e+00 -3.200000e-01  0.000000e+00
   endloop
 endfacet
 facet normal  0.000000e+00  0.000000e+00  1.000000e+00
   outer loop
     vertex  1.680000e+00 -3.200000e-01  1.000000e-01
     vertex  5.200000e-01 -3.200000e-01  1.000000e-01
     vertex  5.200000e-01 -1.280000e+00  1.000000e-01
   endloop
 endfacet
 facet normal -0.000000e+00  0.000000e+00  1.000000e+00
   outer loop
     vertex  1.680000e+00 -3.200000e-01  1.000000e-01
     vertex  5.200000e-01 -1.280000e+00  1.000000e-01
     vertex  1.680000e+00 -1.280000e+00  1.000000e-01
   endloop
 endfacet
 facet normal -1.000000e+00 -0.000000e+00 -0.000000e+00
   outer loop
     vertex  5.200000e-01  1.280000e+00  1.000000e-01
     vertex  5.200000e-01  1.280000e+00  0.000000e+00
     vertex  5.200000e-01  3.200000e-01  1.000000e-01
   endloop
 endfacet
 facet normal -1.000000e+00  0.000000e+00  0.000000e+00
   outer loop
     vertex  5.200000e-01  1.280000e+00  0.000000e+00
     vertex  5.200000e-01  3.200000e-01  0.000000e+00
     vertex  5.200000e-01  3.200000e-01  1.000000e-01
   endloop
 endfacet
 facet normal  1.000000e+00 -0.000000e+00  0.000000e+00
   outer loop
     vertex  1.680000e+00  3.200000e-01  1.000000e-01
     vertex  1.680000e+00  1.280000e+00  0.000000e+00
     vertex  1.680000e+00  1.280000e+00  1.000000e-01
   endloop
 endfacet
 facet normal  1.000000e+00 -0.000000e+00  0.000000e+00
   outer loop
     vertex  1.680000e+00  3.200000e-01  1.000000e-01
     vertex  1.680000e+00  3.200000e-01  0.000000e+00
     vertex  1.680000e+00  1.280000e+00  0.000000e+00
   endloop
 endfacet
 facet normal  0.000000e+00 -1.000000e+00  0.000000e+00
   outer loop
     vertex  5.200000e-01  3.200000e-01  0.000000e+00
     vertex  1.680000e+00  3.200000e-01  0.000000e+00
     vertex  1.680000e+00  3.200000e-01  1.000000e-01
   endloop
 endfacet
 facet normal  0.000000e+00 -1.000000e+00  0.000000e+00
   outer loop
     vertex  5.200000e-01  3.200000e-01  1.000000e-01
     vertex  5.200000e-01  3.200000e-01  0.000000e+00
     vertex  1.680000e+00  3.200000e-01  1.000000e-01
   endloop
 endfacet
 facet normal  0.000000e+00  1.000000e+00  0.000000e+00
   outer loop
     vertex  1.680000e+00  1.280000e+00  1.000000e-01
     vertex  1.680000e+00  1.280000e+00  0.000000e+00
     vertex  5.200000e-01  1.280000e+00  0.000000e+00
   endloop
 endfacet
 facet normal  0.000000e+00  1.000000e+00 -0.000000e+00
   outer loop
     vertex  1.680000e+00  1.280000e+00  1.000000e-01
     vertex  5.200000e-01  1.280000e+00  0.000000e+00
     vertex  5.200000e-01  1.280000e+00  1.000000e-01
   endloop
 endfacet
 facet normal  0.000000e+00  0.000000e+00 -1.000000e+00
   outer loop
     vertex  5.200000e-01  3.200000e-01  0.000000e+00
     vertex  5.200000e-01  1.280000e+00  0.000000e+00
     vertex  1.680000e+00  1.280000e+00  0.000000e+00
   endloop
 endfacet
 facet normal  0.000000e+00  0.000000e+00 -1.000000e+00
   outer loop
     vertex  1.680000e+00  3.200000e-01  0.000000e+00
     vertex  5.200000e-01  3.200000e-01  0.000000e+00
     vertex  1.680000e+00  1.280000e+00  0.000000e+00
   endloop
 endfacet
 facet normal  0.000000e+00  0.000000e+00  1.000000e+00
   outer loop
     vertex  1.680000e+00  1.280000e+00  1.000000e-01
     vertex  5.200000e-01  1.280000e+00  1.000000e-01
     vertex  5.200000e-01  3.200000e-01  1.000000e-01
   endloop
 endfacet
 facet normal -0.000000e+00  0.000000e+00  1.000000e+00
   outer loop
     vertex  1.680000e+00  1.280000e+00  1.000000e-01
     vertex  5.200000e-01  3.200000e-01  1.000000e-01
     vertex  1.680000e+00  3.200000e-01  1.000000e-01
   endloop
 endfacet
 facet normal -1.000000e+00 -0.000000e+00 -0.000000e+00
   outer loop
     vertex -1.680000e+00  1.280000e+00  1.000000e-01
     vertex -1.680000e+00  1.280000e+00  0.000000e+00
     vertex -1.680000e+00  3.200000e-01  1.000000e-01
   endloop
 endfacet
 facet normal -1.000000e+00  0.000000e+00  0.000000e+00
   outer loop
     vertex -1.680000e+00  1.280000e+00  0.000000e+00
     vertex -1.680000e+00  3.200000e-01  0.000000e+00
     vertex -1.680000e+00  3.200000e-01  1.000000e-01
   endloop
 endfacet
 facet normal  1.000000e+00 -0.000000e+00  0.000000e+00
   outer loop
     vertex -5.200000e-01  3.200000e-01  1.000000e-01
     vertex -5.200000e-01  1.280000e+00  0.000000e+00
     vertex -5.200000e-01  1.280000e+00  1.000000e-01
   endloop
 endfacet
 facet normal  1.000000e+00 -0.000000e+00  0.000000e+00
   outer loop
     vertex -5.200000e-01  3.200000e-01  1.000000e-01
     vertex -5.200000e-01  3.200000e-01  0.000000e+00
     vertex -5.200000e-01  1.280000e+00  0.000000e+00
   endloop
 endfacet
 facet normal  0.000000e+00 -1.000000e+00  0.000000e+00
   outer loop
     vertex -1.680000e+00  3.200000e-01  1.000000e-01
     vertex -1.680000e+00  3.200000e-01  0.000000e+00
     vertex -5.200000e-01  3.200000e-01  0.000000e+00
   endloop
 endfacet
 facet normal  0.000000e+00 -1.000000e+00  0.000000e+00
   outer loop
     vertex -1.680000e+00  3.200000e-01  1.000000e-01
     vertex -5.200000e-01  3.200000e-01  0.000000e+00
     vertex -5.200000e-01  3.200000e-01  1.000000e-01
   endloop
 endfacet
 facet normal  0.000000e+00  1.000000e+00 -0.000000e+00
   outer loop
     vertex -5.200000e-01  1.280000e+00  0.000000e+00
     vertex -1.680000e+00  1.280000e+00  0.000000e+00
     vertex -1.680000e+00  1.280000e+00  1.000000e-01
   endloop
 endfacet
 facet normal  0.000000e+00  1.000000e+00  0.000000e+00
   outer loop
     vertex -5.200000e-01  1.280000e+00  1.000000e-01
     vertex -5.200000e-01  1.280000e+00  0.000000e+00
     vertex -1.680000e+00  1.280000e+00  1.000000e-01
   endloop
 endfacet
 facet normal  0.000000e+00  0.000000e+00 -1.000000e+00
   outer loop
     vertex -1.680000e+00  3.200000e-01  0.000000e+00
     vertex -1.680000e+00  1.280000e+00  0.000000e+00
     vertex -5.200000e-01  1.280000e+00  0.000000e+00
   endloop
 endfacet
 facet normal  0.000000e+00  0.000000e+00 -1.000000e+00
   outer loop
     vertex -5.200000e-01  3.200000e-01  0.000000e+00
     vertex -1.680000e+00  3.200000e-01  0.000000e+00
     vertex -5.200000e-01  1.280000e+00  0.000000e+00
   endloop
 endfacet
 facet normal  0.000000e+00  0.000000e+00  1.000000e+00
   outer loop
     vertex -5.200000e-01  1.280000e+00  1.000000e-01
     vertex -1.680000e+00  1.280000e+00  1.000000e-01
     vertex -1.680000e+00  3.200000e-01  1.000000e-01
   endloop
 endfacet
 facet normal -0.000000e+00  0.000000e+00  1.000000e+00
   outer loop
     vertex -5.200000e-01  1.280000e+00  1.000000e-01
     vertex -1.680000e+00  3.200000e-01  1.000000e-01
     vertex -5.200000e-01  3.200000e-01  1.000000e-01
   endloop
 endfacet
endsolid
